<?xml version="1.0" encoding="UTF-8"?><svg id="e" xmlns="http://www.w3.org/2000/svg" viewBox="0 0 400 124"><defs><style>.j{fill:#47763b;}.k{fill:#316094;}</style></defs><path class="j" d="M64.06,81.16s11.61,6.51,28.09.38c0,0,12.17-6.51,26.78-2.24l24.81,7.31-13.26-25.47c-11.24-3.34-21.17-8.37-37.64-1.49,0,0-15.86,7.9-32.4-1.49-2.62-1.48-8.05-2.23-8.05-2.23l6-10.6,4.18,7.68,13.14-24.04L63.06,3.68c-2.28-3.86-6.4-1.66-7.3,0L10.43,85.27l20.1-5.04c12.93-3.53,20.23-5.76,33.52.93Z"/><path class="j" d="M92.3,55.19l5.22-9.3,4.07,7.31c13.48-2.23,17.84-.02,27.39,2.96L102.38,4.24s-3.75-5.84-8.05.18l-28.43,51.62c12.17,2.97,16.1,2.68,26.4-.85Z"/><path class="k" d="M153.51,105.21c-1.32-3.27-6.74-12.4-6.74-12.4l-31.21-8.68c-13.67-3.54-24.16,2.23-24.16,2.23-14.41,7.06-29.4,0-29.4,0-10.86-5.95-20.79-4.27-30.33-1.85l-23.72,5.95s-5.7,11.14-7.43,14.94c-1.83,4.03,1.5,6.61,5.81,6.51h142.46c3.98,0,6.32-2.76,4.73-6.69Z"/><path class="k" d="M177.19,50.02c-.21-4.55-.47-10.05-.42-14.81h-.16c-1.16,4.29-2.63,9.05-4.21,13.5l-5.16,15.28h-5l-4.74-15.07c-1.37-4.5-2.63-9.32-3.58-13.71h-.11c-.16,4.61-.37,10.21-.63,15.02l-.79,14.18h-6.05l2.37-35.28h8.52l4.63,14.18c1.26,4.13,2.37,8.32,3.26,12.25h.16c.95-3.82,2.16-8.17,3.53-12.3l4.89-14.13h8.42l2.05,35.28h-6.31l-.68-14.39Z"/><path class="k" d="M212.64,56.77c0,3.04.11,5.55.21,7.64h-5.68l-.32-3.87h-.11c-1.11,1.83-3.63,4.45-8.21,4.45s-8.95-2.77-8.95-11.1v-14.97h6.47v13.87c0,4.24,1.37,6.96,4.79,6.96,2.58,0,4.26-1.83,4.95-3.45.21-.58.37-1.26.37-1.99v-15.39h6.47v17.85Z"/><path class="k" d="M218.69,27.25h6.52v37.16h-6.52V27.25Z"/><path class="k" d="M238.7,31.65v7.28h6.16v4.82h-6.16v11.25c0,3.09.84,4.71,3.31,4.71,1.11,0,1.95-.16,2.53-.31l.11,4.92c-.95.37-2.63.63-4.68.63-2.37,0-4.37-.79-5.58-2.09-1.37-1.47-2-3.77-2-7.12v-11.99h-3.68v-4.82h3.68v-5.76l6.32-1.52Z"/><path class="k" d="M248.61,46.51c0-2.93-.05-5.39-.21-7.59h5.68l.32,3.82h.16c1.11-1.99,3.89-4.4,8.16-4.4,4.47,0,9.1,2.88,9.1,10.94v15.13h-6.47v-14.39c0-3.66-1.37-6.44-4.89-6.44-2.58,0-4.37,1.83-5.05,3.77-.21.58-.26,1.36-.26,2.09v14.97h-6.52v-17.9Z"/><path class="k" d="M302.19,51.43c0,9.37-6.63,13.56-13.16,13.56-7.26,0-12.84-4.97-12.84-13.14s5.52-13.5,13.26-13.5,12.73,5.34,12.73,13.08ZM282.88,51.69c0,4.92,2.42,8.64,6.37,8.64,3.68,0,6.26-3.61,6.26-8.74,0-3.98-1.79-8.53-6.21-8.53s-6.42,4.4-6.42,8.64Z"/><path class="k" d="M306.62,46.51c0-2.93-.05-5.39-.21-7.59h5.58l.26,3.77h.16c1.26-1.99,3.58-4.34,7.89-4.34,3.37,0,6,1.88,7.1,4.71h.11c.89-1.41,1.95-2.46,3.16-3.19,1.42-.99,3.05-1.52,5.16-1.52,4.26,0,8.58,2.88,8.58,11.04v15.02h-6.31v-14.08c0-4.24-1.47-6.75-4.58-6.75-2.21,0-3.84,1.57-4.53,3.4-.16.63-.32,1.41-.32,2.15v15.28h-6.32v-14.76c0-3.56-1.42-6.07-4.42-6.07-2.42,0-4.05,1.88-4.63,3.66-.26.63-.37,1.36-.37,2.09v15.07h-6.31v-17.9Z"/><path class="k" d="M364.75,64.41l-.42-2.83h-.16c-1.58,1.99-4.26,3.4-7.58,3.4-5.16,0-8.05-3.72-8.05-7.59,0-6.44,5.74-9.68,15.21-9.63v-.42c0-1.67-.68-4.45-5.21-4.45-2.53,0-5.16.78-6.89,1.88l-1.26-4.19c1.9-1.15,5.21-2.25,9.26-2.25,8.21,0,10.58,5.18,10.58,10.73v9.21c0,2.3.11,4.55.37,6.12h-5.84ZM363.91,51.95c-4.58-.1-8.95.89-8.95,4.76,0,2.51,1.63,3.66,3.68,3.66,2.58,0,4.47-1.67,5.05-3.51.16-.47.21-.99.21-1.41v-3.51Z"/><path class="k" d="M376.07,27.25h6.52v15.18h.11c.79-1.2,1.84-2.2,3.21-2.93,1.26-.73,2.79-1.15,4.42-1.15,4.37,0,8.95,2.88,8.95,11.04v15.02h-6.47v-14.29c0-3.72-1.37-6.49-4.95-6.49-2.53,0-4.31,1.67-5,3.61-.21.52-.26,1.2-.26,1.94v15.23h-6.52V27.25Z"/><path class="k" d="M192.77,110.86c-1.53.78-4.89,1.57-9.16,1.57-11.26,0-18.1-7.01-18.1-17.74,0-11.62,8.1-18.63,18.94-18.63,4.26,0,7.31.89,8.63,1.57l-1.42,5.13c-1.68-.73-4-1.36-6.95-1.36-7.21,0-12.42,4.5-12.42,12.98,0,7.75,4.58,12.72,12.37,12.72,2.63,0,5.37-.52,7.05-1.31l1.05,5.08Z"/><path class="k" d="M220.75,98.93c0,9.37-6.63,13.56-13.16,13.56-7.26,0-12.84-4.97-12.84-13.14s5.52-13.5,13.26-13.5,12.73,5.34,12.73,13.08ZM201.44,99.19c0,4.92,2.42,8.64,6.37,8.64,3.68,0,6.26-3.61,6.26-8.74,0-3.98-1.79-8.53-6.21-8.53s-6.42,4.4-6.42,8.64Z"/><path class="k" d="M248.16,104.27c0,3.04.11,5.55.21,7.64h-5.68l-.32-3.87h-.11c-1.11,1.83-3.63,4.45-8.21,4.45s-8.95-2.77-8.95-11.1v-14.97h6.47v13.87c0,4.24,1.37,6.96,4.79,6.96,2.58,0,4.26-1.83,4.95-3.45.21-.58.37-1.26.37-1.99v-15.39h6.47v17.85Z"/><path class="k" d="M254.21,94.01c0-2.93-.05-5.39-.21-7.59h5.68l.32,3.82h.16c1.11-1.99,3.89-4.4,8.16-4.4,4.47,0,9.1,2.88,9.1,10.94v15.13h-6.47v-14.39c0-3.66-1.37-6.44-4.89-6.44-2.58,0-4.37,1.83-5.05,3.77-.21.58-.26,1.36-.26,2.09v14.97h-6.52v-17.9Z"/><path class="k" d="M290.47,79.15v7.28h6.16v4.82h-6.16v11.25c0,3.09.84,4.71,3.31,4.71,1.11,0,1.95-.16,2.53-.31l.11,4.92c-.95.37-2.63.63-4.68.63-2.37,0-4.37-.79-5.58-2.09-1.37-1.47-2-3.77-2-7.12v-11.99h-3.68v-4.82h3.68v-5.76l6.32-1.52Z"/><path class="k" d="M305.95,86.42l4.63,13.66c.53,1.57,1.05,3.51,1.42,4.97h.16c.42-1.47.89-3.35,1.37-5.02l4-13.61h6.95l-6.42,17.38c-3.53,9.53-5.89,13.77-8.95,16.38-2.53,2.25-5.16,3.09-6.79,3.3l-1.47-5.44c1.1-.26,2.47-.84,3.79-1.78,1.21-.78,2.63-2.3,3.53-4.03.26-.47.42-.84.42-1.15,0-.26-.05-.63-.37-1.26l-9.37-23.4h7.1Z"/></svg>
